<?xml version="1.0" encoding="UTF-8" standalone="no"?>
<svg
   clip-rule="evenodd"
   fill-rule="evenodd"
   height="1000"
   stroke-linejoin="round"
   stroke-miterlimit="2"
   viewBox="0 0 1510 1000"
   width="1510"
   version="1.1"
   id="svg12"
   sodipodi:docname="banner_vertical_color.svg"
   inkscape:version="1.3 (0e150ed6c4, 2023-07-21)"
   xmlns:inkscape="http://www.inkscape.org/namespaces/inkscape"
   xmlns:sodipodi="http://sodipodi.sourceforge.net/DTD/sodipodi-0.dtd"
   xmlns="http://www.w3.org/2000/svg"
   xmlns:svg="http://www.w3.org/2000/svg">
  <defs
     id="defs12" />
  <sodipodi:namedview
     id="namedview12"
     pagecolor="#ffffff"
     bordercolor="#666666"
     borderopacity="1.0"
     inkscape:showpageshadow="2"
     inkscape:pageopacity="0.0"
     inkscape:pagecheckerboard="0"
     inkscape:deskcolor="#d1d1d1"
     inkscape:zoom="0.87483444"
     inkscape:cx="757.28615"
     inkscape:cy="502.95231"
     inkscape:window-width="1904"
     inkscape:window-height="2120"
     inkscape:window-x="0"
     inkscape:window-y="24"
     inkscape:window-maximized="1"
     inkscape:current-layer="svg12" />
  <linearGradient
     id="a"
     gradientTransform="matrix(200,-420,420,200,660,1340)"
     gradientUnits="userSpaceOnUse"
     x1="0"
     x2="1"
     y1="0"
     y2="0">
    <stop
       offset="0"
       stop-color="#fdd49a"
       id="stop1" />
    <stop
       offset="1"
       stop-color="#dca055"
       id="stop2" />
  </linearGradient>
  <path
     d="m 526.55078,695.48438 v 94.20312 c -6.66549,-7.06493 -14.67792,-12.58654 -24.03125,-16.56836 -9.35749,-3.98182 -19.51014,-5.97461 -30.45703,-5.97461 -14.43358,0 -27.34789,3.35659 -38.74414,10.07617 -11.39625,6.71959 -20.35539,15.92332 -26.87109,27.61914 -6.51987,11.69583 -9.77735,25.00684 -9.77735,39.93555 0,14.93287 3.25748,28.24389 9.77735,39.93555 6.5157,11.69582 15.47484,20.90346 26.87109,27.62304 11.39625,6.71543 24.31056,10.07227 38.74414,10.07227 11.24646,0 21.64813,-2.11449 31.20117,-6.3418 9.55305,-4.23146 17.66212,-10.02587 24.33594,-17.39453 l 1.34375,20.75391 H 551.1875 V 695.48438 Z M 0,695.48633 V 919.42578 H 26.128906 V 820.89453 H 153.77148 v 98.53125 h 26.1211 V 695.48633 h -26.1211 V 797.00781 H 26.128906 V 695.48633 Z m 970.24609,0.29687 v 223.93946 h 60.91011 c 43.9915,0 77.78,-9.80258 101.3672,-29.41211 23.5872,-19.60538 35.3828,-47.2249 35.3828,-82.85743 0,-35.5285 -11.7956,-63.02267 -35.3828,-82.48242 -23.5872,-19.45559 -57.3757,-29.1875 -101.3672,-29.1875 z m 26.125,23.88672 h 34.78511 c 35.4287,0 62.6012,7.63976 81.5118,22.91797 18.9063,15.27821 28.3652,36.90095 28.3652,64.86523 0,28.06831 -9.4589,49.8164 -28.3652,65.24024 -18.9106,15.428 -46.0831,23.14258 -81.5118,23.14258 h -34.78511 z m -702.11718,47.47656 c -14.73316,0 -27.91466,3.33256 -39.56055,9.99805 -11.64589,6.67382 -20.80521,15.80664 -27.4707,27.39844 -6.66966,11.59596 -10.00586,24.75512 -10.00586,39.48828 0,15.12843 3.56092,28.61363 10.67578,40.45508 7.11485,11.84977 16.94808,21.12416 29.48437,27.84375 12.54045,6.71958 26.87325,10.07812 42.9961,10.07812 10.05233,0 20.47608,-1.69349 31.27734,-5.07617 10.7971,-3.38268 21.62172,-9.60419 32.46875,-18.66211 l -14.47852,-18.50976 c -7.36865,6.96506 -15.52852,12.01515 -24.48242,15.15234 -8.95806,3.13303 -17.46554,4.70117 -25.5332,4.70117 -14.52928,0 -26.94633,-4.25497 -37.24414,-12.76367 -10.30198,-8.5087 -16.69548,-19.3858 -19.18359,-32.62109 h 126.59765 v -10.00196 c 0,-15.02857 -3.23709,-28.36803 -9.70703,-40.00976 -6.46578,-11.6459 -15.37438,-20.79884 -26.7207,-27.47266 -11.34632,-6.66549 -24.38013,-9.99805 -39.11328,-9.99805 z m 369.64843,0 c -14.43358,0 -27.34789,3.35685 -38.74414,10.07227 -11.39625,6.71958 -20.35538,15.92723 -26.87109,27.62305 -6.51987,11.69582 -9.77734,25.00293 -9.77734,39.93164 0,14.93287 3.25747,28.24779 9.77734,39.93945 6.51571,11.69582 15.47484,20.8976 26.87109,27.61719 11.39625,6.71958 24.31056,10.07812 38.74414,10.07812 10.94273,0 21.09955,-1.99304 30.45704,-5.9707 9.34916,-3.98182 17.36575,-9.50318 24.03124,-16.57227 v 7.76368 c 0,20.30021 -5.10087,36.54903 -15.29882,48.74414 -10.20628,12.18679 -25.90458,18.28515 -47.10352,18.28515 -8.35891,0 -16.12233,-1.3677 -23.28711,-4.10547 -7.16478,-2.73776 -13.53985,-6.54575 -19.11523,-11.41796 l -12.23633,20.59961 c 7.36034,5.47552 15.62347,9.72828 24.78125,12.76562 9.15361,3.03734 18.96035,4.55273 29.41211,4.55273 19.00623,0 35.00407,-3.85826 47.99805,-11.57226 12.98564,-7.70984 22.81276,-18.48613 29.48242,-32.31641 6.66549,-13.8386 10.0039,-29.96154 10.0039,-48.37695 V 770.12891 H 720.7832 l -1.34765,20.7539 c -6.66966,-7.36866 -14.77899,-13.16086 -24.33203,-17.39648 -9.55305,-4.22731 -19.95887,-6.33985 -31.20118,-6.33985 z m 193.48047,0 c -14.72899,0 -27.91465,3.33256 -39.56054,9.99805 -11.6459,6.67382 -20.80326,15.80664 -27.46875,27.39844 -6.66966,11.59596 -10.00586,24.75512 -10.00586,39.48828 0,15.12843 3.56092,28.61363 10.67578,40.45508 7.11485,11.84977 16.94587,21.12416 29.48633,27.84375 12.54045,6.71958 26.87129,10.07812 42.99414,10.07812 10.05649,0 20.47803,-1.69349 31.27929,-5.07617 10.79295,-3.38268 21.61977,-9.60419 32.4668,-18.66211 l -14.47852,-18.50976 c -7.36865,6.96506 -15.52436,12.01515 -24.48242,15.15234 -8.95806,3.13303 -17.46775,4.70117 -25.53125,4.70117 -14.52928,0 -26.94412,-4.25497 -37.24609,-12.76367 -10.30198,-8.5087 -16.69743,-19.3858 -19.18555,-32.62109 h 126.59961 v -10.00196 c 0,-15.02857 -3.23709,-28.36803 -9.70703,-40.00976 -6.46578,-11.6459 -15.37438,-20.79884 -26.7207,-27.47266 -11.34632,-6.66549 -24.38208,-9.99805 -39.11524,-9.99805 z m 413.53909,0 c -14.9329,0 -28.2437,3.35659 -39.9395,10.07618 -11.6958,6.71958 -20.8995,15.92332 -27.6191,27.61914 -6.7154,11.69582 -10.0781,25.00683 -10.0781,39.93554 0,14.93288 3.3627,28.24194 10.0781,39.9336 6.7196,11.69582 15.9233,20.90346 27.6191,27.62304 11.6958,6.71959 25.0066,10.07813 39.9395,10.07813 14.9287,0 28.238,-3.35854 39.9297,-10.07813 11.6958,-6.71958 20.9034,-15.92722 27.623,-27.62304 6.7196,-11.69166 10.0781,-25.00072 10.0781,-39.9336 0,-14.92871 -3.3585,-28.23972 -10.0781,-39.93554 -6.7196,-11.69582 -15.9272,-20.89956 -27.623,-27.61914 -11.6917,-6.71959 -25.001,-10.07618 -39.9297,-10.07618 z m 182.1347,0.002 c -14.9328,0 -28.2438,3.35854 -39.9355,10.07812 -11.6958,6.71959 -20.9035,15.92332 -27.6231,27.61914 -6.7154,11.69582 -10.0761,25.00489 -10.0761,39.9336 0,14.92871 3.3607,28.24388 10.0761,39.93554 6.7196,11.69583 15.9273,20.89956 27.6231,27.61914 11.6917,6.71959 25.0027,10.07813 39.9355,10.07813 11.2465,0 21.5935,-1.9403 31.0508,-5.82227 9.4532,-3.88196 17.6678,-9.30641 24.6328,-16.27148 l -17.1679,-17.02148 c -4.6809,5.18011 -10.3016,9.25698 -16.8672,12.24023 -6.574,2.98741 -13.7888,4.48047 -21.6485,4.48047 -10.0565,0 -19.0153,-2.38754 -26.875,-7.16406 -7.8637,-4.78069 -14.059,-11.34591 -18.5859,-19.70899 -4.531,-8.35891 -6.793,-17.81777 -6.793,-28.36523 0,-10.64732 2.262,-20.12852 6.793,-28.4375 4.5269,-8.30899 10.7222,-14.85409 18.5859,-19.63477 7.8597,-4.77652 16.8185,-7.16406 26.875,-7.16406 7.8597,0 15.0745,1.46903 21.6485,4.40234 6.5656,2.93748 12.1863,7.04255 16.8672,12.31836 l 17.1679,-17.16992 c -6.965,-6.86521 -15.1796,-12.24108 -24.6328,-16.12305 -9.4573,-3.88196 -19.8043,-5.82226 -31.0508,-5.82226 z m -978.75582,22.38867 c 10.05233,0 19.00952,2.38924 26.86914,7.16992 7.86379,4.77652 14.06076,11.31992 18.5918,19.62891 4.52688,8.30898 6.78906,17.79213 6.78906,28.43945 0,10.55162 -2.26218,20.00437 -6.78906,28.36328 -4.53104,8.36308 -10.72801,14.9283 -18.5918,19.70899 -7.85962,4.77652 -16.81681,7.16601 -26.86914,7.16601 -10.05233,0 -19.00951,-2.38949 -26.86914,-7.16601 -7.86795,-4.78069 -14.06322,-11.34591 -18.58594,-19.70899 -4.5352,-8.35891 -6.79882,-17.81166 -6.79882,-28.36328 0,-10.64732 2.26362,-20.13047 6.79882,-28.43945 4.52272,-8.30899 10.71799,-14.85239 18.58594,-19.62891 7.85963,-4.78068 16.81681,-7.16992 26.86914,-7.16992 z m -180.19336,0.002 c 13.03558,0 24.08271,4.10312 33.14063,12.31641 9.05375,8.21329 14.67864,18.83551 16.86718,31.87109 H 242.89648 c 2.18855,-12.83586 7.96478,-23.41367 17.32227,-31.72265 9.35333,-8.30899 20.64922,-12.46485 33.88867,-12.46485 z m 372.0332,0 c 10.05234,0 19.00952,2.3895 26.86915,7.16602 7.86378,4.78068 14.06075,11.32408 18.59179,19.6289 4.52688,8.31315 6.78906,17.7963 6.78906,28.43946 0,10.55162 -2.26218,20.00827 -6.78906,28.36718 -4.53104,8.35892 -10.72801,14.92856 -18.59179,19.70508 -7.85963,4.78069 -16.81681,7.16992 -26.86915,7.16992 -10.05233,0 -19.01121,-2.38923 -26.875,-7.16992 -7.86378,-4.77652 -14.05931,-11.34616 -18.58203,-19.70508 -4.5352,-8.35891 -6.79687,-17.81556 -6.79687,-28.36718 0,-10.64316 2.26167,-20.12631 6.79687,-28.43946 4.52272,-8.30482 10.71825,-14.84822 18.58203,-19.6289 7.86379,-4.77652 16.82267,-7.16602 26.875,-7.16602 z m 191.09766,0 c 13.03558,0 24.08076,4.10312 33.13867,12.31641 9.05376,8.21329 14.6806,18.83551 16.86914,31.87109 H 806.02734 c 2.18855,-12.83586 7.96283,-23.41367 17.32032,-31.72265 9.35333,-8.30899 20.65117,-12.46485 33.89062,-12.46485 z m 413.68362,0 c 10.0481,0 19.0095,2.38729 26.8691,7.16797 7.8638,4.77652 14.0591,11.32188 18.586,19.63086 4.531,8.30899 6.7949,17.79214 6.7949,28.43945 0,10.55162 -2.2639,20.00412 -6.7949,28.36719 -4.5269,8.35891 -10.7222,14.9244 -18.586,19.70508 -7.8596,4.78068 -16.821,7.16601 -26.8691,7.16601 -10.0565,0 -19.0154,-2.38533 -26.875,-7.16601 -7.8638,-4.78068 -14.0591,-11.34617 -18.586,-19.70508 -4.531,-8.36307 -6.7949,-17.81557 -6.7949,-28.36719 0,-10.64731 2.2639,-20.13046 6.7949,-28.43945 4.5269,-8.30898 10.7222,-14.85434 18.586,-19.63086 7.8596,-4.78068 16.8185,-7.16797 26.875,-7.16797 z"
     fill="#ffffff"
     stroke-width="4.16073"
     id="path2"
     style="fill-rule:nonzero" />
  <path
     id="AX-3"
     fill="#8bd124"
     d="M 1046.3527,321.41815 1320.5791,45.369543 h -143.946 L 975.29071,249.44508 772.12623,45.369543 H 638.20165 L 87.926533,600.19992 H 232.78373 L 705.61947,123.71997 902.40659,322.3292 626.35798,600.19992 H 769.39307 L 974.37966,395.21333 1177.5441,600.19992 h 144.8572 z"
     style="stroke-width:9.11051" />
  <path
     id="AX"
     fill="#8bd124"
     d="m -1638.8,568.3 30.1,-30.3 h -15.8 l -22.1,22.4 -22.3,-22.4 h -14.7 l -60.4,60.9 h 15.9 l 51.9,-52.3 21.6,21.8 -30.3,30.5 h 15.7 l 22.5,-22.5 22.3,22.5 h 15.9 z"
     style="stroke-width:0.999999" />
</svg>
