<?xml version="1.0" encoding="UTF-8" standalone="no"?>
<!-- Created with Inkscape (http://www.inkscape.org/) -->

<svg
   width="121.03452mm"
   height="17.713526mm"
   viewBox="0 0 121.03452 17.713525"
   version="1.1"
   id="svg1"
   inkscape:version="1.3 (0e150ed6c4, 2023-07-21)"
   sodipodi:docname="banner_h_wb.svg"
   xmlns:inkscape="http://www.inkscape.org/namespaces/inkscape"
   xmlns:sodipodi="http://sodipodi.sourceforge.net/DTD/sodipodi-0.dtd"
   xmlns="http://www.w3.org/2000/svg"
   xmlns:svg="http://www.w3.org/2000/svg">
  <sodipodi:namedview
     id="namedview1"
     pagecolor="#ffffff"
     bordercolor="#666666"
     borderopacity="1.0"
     inkscape:showpageshadow="2"
     inkscape:pageopacity="0.0"
     inkscape:pagecheckerboard="0"
     inkscape:deskcolor="#d1d1d1"
     inkscape:document-units="mm"
     inkscape:zoom="1.6643552"
     inkscape:cx="193.76873"
     inkscape:cy="559.97662"
     inkscape:window-width="1904"
     inkscape:window-height="2120"
     inkscape:window-x="0"
     inkscape:window-y="24"
     inkscape:window-maximized="1"
     inkscape:current-layer="layer1" />
  <defs
     id="defs1" />
  <g
     inkscape:label="Layer 1"
     inkscape:groupmode="layer"
     id="layer1"
     transform="translate(-0.99692216,-0.08551177)">
    <path
       id="AX"
       fill="#8bd124"
       d="m 31.539107,8.4327869 7.963958,-8.016875 h -4.180416 l -5.847292,5.926667 -5.900208,-5.926667 H 19.685774 L 3.7049411,16.529037 h 4.206875 L 21.643691,2.6913289 l 5.715,5.767916 -8.016875,8.0697921 h 4.153958 l 5.953125,-5.953125 5.900208,5.953125 h 4.206875 z"
       style="stroke-width:0.264583" />
    <g
       fill="#cccccc"
       id="g4"
       transform="matrix(0.26458333,0,0,0.26458333,-8.2899528,-17.549296)">
      <path
         id="axiros_lasting_advantage"
         d="m 279.9,102.6 -12,-12.2 -12.1,12.2 h -10.1 l 17.1,-17.3 -17,-17.2 H 256 l 11.9,12 11.9,-12 H 290 l -17,17.2 17.1,17.3 z m 18.2,0 V 68.1 h 7.8 v 34.5 z m 32.6,-27.8 c -1.9,0 -3.9,1.8 -3.9,3.1 v 24.7 h -8.3 v -22 c 0,-7.7 3.4,-12.5 11.6,-12.5 h 11.6 v 6.7 z m 55.1,27.8 h -26.9 c -7.8,0 -10,-3.3 -10,-10.4 V 78.5 c 0,-7.2 2.2,-10.4 10,-10.4 h 26.9 c 7.8,0 10,3.2 10,10.4 v 13.7 c 0,7.1 -2.2,10.4 -10,10.4 z m 2.2,-25 c 0,-1.9 -0.5,-2.8 -2.6,-2.8 h -26.3 c -1.9,0 -2.4,0.9 -2.4,2.8 V 93 c 0,2 0.5,2.8 2.4,2.8 h 26.3 c 2.1,0 2.6,-0.8 2.6,-2.8 z m 50.1,24.9 h -30.5 v -6.7 h 30.3 a 3.7,3.7 0 0 0 3.6,-3.7 3.5,3.5 0 0 0 -3.6,-3.4 h -22.3 a 10.2,10.2 0 0 1 -10.2,-10.2 10,10 0 0 1 9.9,-10.2 h 30.1 V 75 h -29.8 a 3.5,3.5 0 0 0 -3.2,3.5 3.3,3.3 0 0 0 3.2,3.3 h 22.6 a 10,10 0 0 1 10.2,10.4 10.2,10.2 0 0 1 -10.3,10.3 z M 230.8,86.4 h -27.5 c -2.6,0 -3.6,0.5 -3.6,3 v 3.5 c 0,2.5 1,2.9 3.6,2.9 h 24.6 c 2.4,0 2.9,-0.2 2.9,-3.3 z m -28.9,16.2 c -7.8,0 -10,-3.3 -10,-10.4 v -2 c 0,-5.7 2.2,-10.4 10,-10.4 h 28.9 V 77 c 0,-1.5 -0.5,-2.2 -2.9,-2.2 H 195.4 V 68.1 H 227 c 8.7,0 11.6,3.7 11.6,13 v 11 c 0,7.2 -2.2,10.5 -10,10.5 z m 0,26.3 h -7.1 v -17.1 h 2.2 v 15 h 5.2 z m 13.3,0 -0.3,-1.6 a 4.1,4.1 0 0 1 -3.4,1.8 c -1.5,0 -3.7,-0.6 -3.7,-4.1 0,-3.5 2.7,-4.1 4.9,-4.1 h 2.1 v -1.4 c 0,-1.8 -0.9,-2 -2.4,-2 a 11.8,11.8 0 0 0 -3.5,0.7 v -1.9 a 13.5,13.5 0 0 1 3.8,-0.6 c 2.4,0 4.3,0.6 4.3,4.2 v 9 z m -0.4,-6.7 h -1.5 c -2,0 -3.3,0.4 -3.3,2.5 0,2.1 0.9,2.5 2,2.5 a 4.6,4.6 0 0 0 2.8,-1.3 z m 12.5,6.9 a 10.7,10.7 0 0 1 -2.9,-0.5 v -2 a 13.6,13.6 0 0 0 2.9,0.6 c 1.3,0 2.5,-0.3 2.5,-1.9 0,-1.6 -0.7,-1.6 -1.8,-2.1 l -1.2,-0.5 a 3.4,3.4 0 0 1 -2.6,-3.4 c 0,-2.3 1.7,-3.6 4.3,-3.6 a 8.3,8.3 0 0 1 2.9,0.5 v 1.8 a 10.5,10.5 0 0 0 -2.8,-0.5 c -1.3,0 -2.3,0.3 -2.3,1.7 0,1.4 0.9,1.6 1.6,1.8 l 1.3,0.6 a 3.6,3.6 0 0 1 2.7,3.7 c 0,3.2 -2.3,3.8 -4.6,3.8 z m 15.2,0 c -1.8,0 -2.9,-0.7 -2.9,-3.2 v -8.3 h -2.2 v -1.7 h 2.2 V 113 l 2.1,-1 v 3.9 h 2.9 l -0.2,1.7 h -2.7 v 8.3 c 0,1.2 0.4,1.3 1.2,1.3 a 10.9,10.9 0 0 0 2.2,-0.4 v 1.9 a 10.4,10.4 0 0 1 -2.6,0.4 z m 10,-15.1 a 1.5,1.5 0 0 1 0,-3 1.5,1.5 0 0 1 0,3 z m -1.1,14.9 v -13 h 2.2 v 13 z m 18.6,0 v -9.5 c 0,-1.7 -1.1,-1.8 -2.1,-1.8 a 6.7,6.7 0 0 0 -3.5,1.3 v 10 h -2.2 v -13 h 1.6 l 0.5,1.6 a 7,7 0 0 1 4.2,-1.8 c 2.1,0 3.7,0.8 3.7,3.8 v 9.4 z m 18.1,-11.3 a 3.9,3.9 0 0 1 0.9,2.4 c 0,2.9 -1.8,4.4 -4.5,4.4 a 3.8,3.8 0 0 1 -1.9,-0.4 c -0.5,0.5 -0.8,0.9 -0.8,1.3 0,0.4 0.3,0.8 1.5,0.9 h 3 c 2.4,0.2 3.8,0.9 3.8,3.3 0,2.4 -2.4,4.1 -5.9,4.1 -3.5,0 -4.7,-1 -4.7,-3.4 a 3.4,3.4 0 0 1 1.5,-2.7 1.9,1.9 0 0 1 -1,-1.8 c 0,-1 0.8,-1.7 1.5,-2.4 a 3.8,3.8 0 0 1 -1.6,-3.4 c 0,-3 1.8,-4.3 4.6,-4.3 l 2.4,0.2 h 3.4 v 1.7 z m -2.1,10.6 h -3.9 a 3.5,3.5 0 0 0 -0.6,1.8 c 0,1.4 0.8,2.4 2.7,2.4 1.9,0 3.8,-0.9 3.8,-2.4 0,-1.5 -0.5,-1.7 -2,-1.8 z m -1.5,-11 c -1.8,0 -2.4,0.9 -2.4,2.8 0,1.9 0.8,2.9 2.4,2.9 1.6,0 2.4,-1.2 2.4,-2.9 0,-1.7 -0.8,-2.8 -2.4,-2.8 z m 31,11.7 -0.9,-3.9 H 309 l -0.9,3.9 h -2.4 l 4.7,-17.1 h 2.8 l 4.7,17.1 z m -2.8,-12 -0.9,-3.8 -0.9,3.8 -1.5,6.2 h 4.8 z m 19.8,12 -0.3,-1.4 a 4.6,4.6 0 0 1 -3.6,1.6 c -1.8,0 -4.7,-0.9 -4.7,-6.7 0,-5.8 3.6,-6.7 5.2,-6.7 a 3.5,3.5 0 0 1 2.8,1.2 v -5.6 h 2.2 v 17.6 z m -0.6,-10.5 a 4.6,4.6 0 0 0 -2.5,-0.9 c -1.5,0 -3.3,0.6 -3.3,4.9 0,4.3 1.7,4.9 3,4.9 a 4.9,4.9 0 0 0 2.8,-1.2 z m 15.6,10.5 h -2.6 l -4.3,-13 h 2.5 l 2.3,8.3 a 33.1,33.1 0 0 1 0.8,3.6 c 0,0 0.4,-1.9 0.9,-3.6 l 2.2,-8.3 h 2.5 z m 16.9,0 -0.3,-1.6 a 4.1,4.1 0 0 1 -3.4,1.8 c -1.5,0 -3.7,-0.6 -3.7,-4.1 0,-3.5 2.7,-4.1 4.9,-4.1 h 2.1 v -1.4 c 0,-1.8 -0.9,-2 -2.4,-2 a 11.8,11.8 0 0 0 -3.5,0.7 v -1.9 a 13.5,13.5 0 0 1 3.8,-0.6 c 2.4,0 4.3,0.6 4.3,4.2 v 9 z m -0.4,-6.7 h -1.5 c -2.1,0 -3.3,0.4 -3.3,2.5 0,2.1 0.9,2.5 2,2.5 A 4.6,4.6 0 0 0 364,126 Z m 18.6,6.7 v -9.5 c 0,-1.7 -1.1,-1.8 -2.1,-1.8 a 6.7,6.7 0 0 0 -3.5,1.3 v 10 h -2.2 v -13 h 1.6 l 0.5,1.6 a 7,7 0 0 1 4.2,-1.8 c 2.1,0 3.7,0.8 3.7,3.8 v 9.4 z m 13.8,0.2 c -1.9,0 -2.9,-0.7 -2.9,-3.2 v -8.3 h -2.2 v -1.7 h 2.2 V 113 l 2.1,-1 v 3.9 h 2.9 l -0.3,1.7 h -2.6 v 8.3 c 0,1.2 0.3,1.3 1.2,1.3 a 10.9,10.9 0 0 0 2.2,-0.4 v 1.9 a 10.4,10.4 0 0 1 -2.6,0.4 z m 15.2,-0.2 -0.2,-1.6 a 4.4,4.4 0 0 1 -3.4,1.8 c -1.6,0 -3.8,-0.6 -3.8,-4.1 0,-3.5 2.8,-4.1 5,-4.1 h 2.1 v -1.4 c 0,-1.8 -1,-2 -2.5,-2 a 13.4,13.4 0 0 0 -3.5,0.7 v -1.9 a 13.8,13.8 0 0 1 3.9,-0.6 c 2.3,0 4.3,0.6 4.3,4.2 v 9 z m -0.3,-6.7 h -1.6 c -2,0 -3.3,0.4 -3.3,2.5 0,2.1 1,2.5 2.1,2.5 a 4.6,4.6 0 0 0 2.8,-1.3 z m 18.1,-4.6 a 3.9,3.9 0 0 1 0.9,2.4 c 0,2.9 -1.8,4.4 -4.5,4.4 a 4.5,4.5 0 0 1 -2,-0.4 2.4,2.4 0 0 0 -0.7,1.3 c 0,0.7 0.3,0.8 1.5,0.9 h 3 c 2.4,0.2 3.8,0.9 3.8,3.3 0,2.4 -2.4,4.1 -5.9,4.1 -3.5,0 -4.7,-1 -4.7,-3.4 a 3.4,3.4 0 0 1 1.5,-2.7 1.9,1.9 0 0 1 -1,-1.8 c 0,-1 0.8,-1.7 1.5,-2.4 a 3.8,3.8 0 0 1 -1.6,-3.4 c 0,-3 1.8,-4.3 4.6,-4.3 l 2.4,0.2 h 3.4 v 1.7 z m -2.1,10.6 h -3.9 a 3.5,3.5 0 0 0 -0.6,1.8 c 0,1.4 0.8,2.4 2.7,2.4 1.9,0 3.8,-0.9 3.8,-2.4 0,-1.5 -0.5,-1.7 -2,-1.8 z m -1.5,-11 c -1.8,0 -2.4,0.9 -2.4,2.8 0,1.9 0.8,2.9 2.4,2.9 1.6,0 2.4,-1.2 2.4,-2.9 0,-1.7 -0.8,-2.8 -2.4,-2.8 z m 21.1,5.9 h -7.4 c 0.1,4.1 2.1,4.1 3.3,4.1 a 14.2,14.2 0 0 0 3.4,-0.7 v 2 a 11.7,11.7 0 0 1 -3.4,0.6 c -2.5,0 -5.5,-0.5 -5.5,-6.7 0,-6.2 2.5,-6.7 4.9,-6.7 2.4,0 4.9,1 4.7,6.7 z m -4.7,-5.8 c -1.6,0 -2.6,0.8 -2.7,4.3 h 5.2 c 0,-3.7 -1.1,-4.3 -2.5,-4.3 z" />
    </g>
  </g>
</svg>
